<svg width="800" height="800" viewBox="0 0 800 800" xmlns="http://www.w3.org/2000/svg">
  <defs>
    <linearGradient id="g7" x1="0%" y1="0%" x2="100%" y2="100%">
      <stop offset="0%" stop-color="#D62828"/>
      <stop offset="100%" stop-color="#FCBF49"/>
    </linearGradient>
    <filter id="noise7">
      <feTurbulence type="fractalNoise" baseFrequency="0.85" numOctaves="2" stitchTiles="stitch" result="noise"/>
      <feColorMatrix in="noise" type="matrix" values="0 0 0 0 0  0 0 0 0 0  0 0 0 0 0  0 0 0 0.04 0"/>
    </filter>
  </defs>
  <rect width="800" height="800" fill="url(#g7)"/>
  <circle cx="404" cy="666" r="70" fill="white" opacity="0.05"/>
<circle cx="74" cy="548" r="76" fill="white" opacity="0.05"/>
<circle cx="374" cy="596" r="71" fill="white" opacity="0.05"/>
<circle cx="519" cy="219" r="68" fill="white" opacity="0.05"/>
<circle cx="88" cy="444" r="117" fill="white" opacity="0.05"/>

  <rect width="800" height="800" filter="url(#noise7)"/>
  <g transform="translate(340.0,330.0) scale(1.2)" opacity="0.28">
    <path d="M20,70 Q50,50 80,70 L78,78 Q50,60 22,78 Z M18,68 Q50,45 82,68 L82,60 Q50,38 18,60 Z M25,58 L75,58 L73,52 L27,52 Z" fill="none" stroke="white" stroke-width="4" stroke-linecap="round" stroke-linejoin="round"/>
  </g>
  <text x="400.0" y="752" text-anchor="middle" font-family="Arial, sans-serif" font-size="25" font-weight="700" fill="white" opacity="0.85">Quality</text>
  
</svg>