<svg width="900" height="700" viewBox="0 0 900 700" xmlns="http://www.w3.org/2000/svg">
  <defs>
    <linearGradient id="g104" x1="0%" y1="0%" x2="100%" y2="100%">
      <stop offset="0%" stop-color="#D62828"/>
      <stop offset="100%" stop-color="#F77F00"/>
    </linearGradient>
    <filter id="noise104">
      <feTurbulence type="fractalNoise" baseFrequency="0.85" numOctaves="2" stitchTiles="stitch" result="noise"/>
      <feColorMatrix in="noise" type="matrix" values="0 0 0 0 0  0 0 0 0 0  0 0 0 0 0  0 0 0 0.04 0"/>
    </filter>
  </defs>
  <rect width="900" height="700" fill="url(#g104)"/>
  <circle cx="749" cy="233" r="122" fill="white" opacity="0.05"/>
<circle cx="338" cy="6" r="163" fill="white" opacity="0.05"/>
<circle cx="128" cy="17" r="188" fill="white" opacity="0.05"/>
<circle cx="170" cy="107" r="186" fill="white" opacity="0.05"/>
<circle cx="150" cy="120" r="81" fill="white" opacity="0.05"/>

  <rect width="900" height="700" filter="url(#noise104)"/>
  <g transform="translate(390.0,280.0) scale(1.2)" opacity="0.28">
    <path d="M20,70 Q50,50 80,70 L78,78 Q50,60 22,78 Z M18,68 Q50,45 82,68 L82,60 Q50,38 18,60 Z M25,58 L75,58 L73,52 L27,52 Z" fill="none" stroke="white" stroke-width="4" stroke-linecap="round" stroke-linejoin="round"/>
  </g>
  <text x="450.0" y="652" text-anchor="middle" font-family="Arial, sans-serif" font-size="28" font-weight="700" fill="white" opacity="0.85"></text>
  
</svg>